# Exported from ProBuilder
# http://www.procore3d.com/probuilder
# 10/8/2018 11:41:59 AM

mtllib ./Cylinder.mtl
o Cylinder

g Cylinder
v -2.5 0 0
v -2.5 0.15 0
v -2.309699 0 0.9567087
v -2.309699 0.15 0.9567087
v -2.309699 0 0.9567087
v -2.309699 0.15 0.9567087
v -1.767767 0 1.767767
v -1.767767 0.15 1.767767
v -1.767767 0 1.767767
v -1.767767 0.15 1.767767
v -0.9567086 0 2.309699
v -0.9567086 0.15 2.309699
v -0.9567086 0 2.309699
v -0.9567086 0.15 2.309699
v 1.092785E-07 0 2.5
v 1.092785E-07 0.15 2.5
v 1.092785E-07 0 2.5
v 1.092785E-07 0.15 2.5
v 0.9567085 0 2.309699
v 0.9567085 0.15 2.309699
v 0.9567085 0 2.309699
v 0.9567085 0.15 2.309699
v 1.767767 0 1.767767
v 1.767767 0.15 1.767767
v 1.767767 0 1.767767
v 1.767767 0.15 1.767767
v 2.309699 0 0.9567087
v 2.309699 0.15 0.9567087
v 2.309699 0 0.9567087
v 2.309699 0.15 0.9567087
v 2.5 0 -2.185569E-07
v 2.5 0.15 -2.185569E-07
v 2.5 0 -2.185569E-07
v 2.5 0.15 -2.185569E-07
v 2.309699 0 -0.9567086
v 2.309699 0.15 -0.9567086
v 2.309699 0 -0.9567086
v 2.309699 0.15 -0.9567086
v 1.767767 0 -1.767767
v 1.767767 0.15 -1.767767
v 1.767767 0 -1.767767
v 1.767767 0.15 -1.767767
v 0.5244474 0 0.1659265
v 0.5244474 0.15 0.1659265
v 0.5244474 0 0.1659265
v 0.5244474 0.15 0.1659265
v -0.4322615 0 -0.02437472
v -0.4322615 0.15 -0.02437472
v -0.4322615 0 -0.02437472
v -0.4322615 0.15 -0.02437472
v -0.956709 0 -2.309699
v -0.956709 0.15 -2.309699
v -0.956709 0 -2.309699
v -0.956709 0.15 -2.309699
v -1.767767 0 -1.767767
v -1.767767 0.15 -1.767767
v -1.767767 0 -1.767767
v -1.767767 0.15 -1.767767
v -2.309699 0 -0.9567086
v -2.309699 0.15 -0.9567086
v -2.309699 0 -0.9567086
v -2.309699 0.15 -0.9567086
v -2.5 0 0
v -2.5 0.15 0
v -2.5 0 0
v 0 0 0
v -2.309699 0 0.9567087
v -2.5 0.15 0
v 0 0.15 0
v -2.309699 0.15 0.9567087
v -2.309699 0 0.9567087
v 0 0 0
v -1.767767 0 1.767767
v -2.309699 0.15 0.9567087
v 0 0.15 0
v -1.767767 0.15 1.767767
v -1.767767 0 1.767767
v 0 0 0
v -0.9567086 0 2.309699
v -1.767767 0.15 1.767767
v 0 0.15 0
v -0.9567086 0.15 2.309699
v -0.9567086 0 2.309699
v 0 0 0
v 1.092785E-07 0 2.5
v -0.9567086 0.15 2.309699
v 0 0.15 0
v 1.092785E-07 0.15 2.5
v 1.092785E-07 0 2.5
v 0 0 0
v 0.9567085 0 2.309699
v 1.092785E-07 0.15 2.5
v 0 0.15 0
v 0.9567085 0.15 2.309699
v 0.9567085 0 2.309699
v 0 0 0
v 1.767767 0 1.767767
v 0.9567085 0.15 2.309699
v 0 0.15 0
v 1.767767 0.15 1.767767
v 1.767767 0 1.767767
v 0 0 0
v 2.309699 0 0.9567087
v 1.767767 0.15 1.767767
v 0 0.15 0
v 2.309699 0.15 0.9567087
v 2.309699 0 0.9567087
v 0 0 0
v 2.5 0 -2.185569E-07
v 2.309699 0.15 0.9567087
v 0 0.15 0
v 2.5 0.15 -2.185569E-07
v 2.5 0 -2.185569E-07
v 0 0 0
v 2.309699 0 -0.9567086
v 2.5 0.15 -2.185569E-07
v 0 0.15 0
v 2.309699 0.15 -0.9567086
v 2.309699 0 -0.9567086
v 0 0 0
v 1.767767 0 -1.767767
v 2.309699 0.15 -0.9567086
v 0 0.15 0
v 1.767767 0.15 -1.767767
v 1.767767 0 -1.767767
v 0 0 0
v 0.5244474 0 0.1659265
v 1.767767 0.15 -1.767767
v 0 0.15 0
v 0.5244474 0.15 0.1659265
v 0.5244474 0 0.1659265
v 0 0 0
v -0.4322615 0 -0.02437472
v 0.5244474 0.15 0.1659265
v 0 0.15 0
v -0.4322615 0.15 -0.02437472
v -0.4322615 0 -0.02437472
v 0 0 0
v -0.956709 0 -2.309699
v -0.4322615 0.15 -0.02437472
v 0 0.15 0
v -0.956709 0.15 -2.309699
v -0.956709 0 -2.309699
v 0 0 0
v -1.767767 0 -1.767767
v -0.956709 0.15 -2.309699
v 0 0.15 0
v -1.767767 0.15 -1.767767
v -1.767767 0 -1.767767
v 0 0 0
v -2.309699 0 -0.9567086
v -1.767767 0.15 -1.767767
v 0 0.15 0
v -2.309699 0.15 -0.9567086
v -2.309699 0 -0.9567086
v 0 0 0
v -2.5 0 0
v -2.309699 0.15 -0.9567086
v 0 0.15 0
v -2.5 0.15 0

vn -0.9807853 0 0.1950903
vn -0.9807853 0 0.1950903
vn -0.9807853 0 0.1950903
vn -0.9807853 0 0.1950903
vn -0.8314697 0 0.5555703
vn -0.8314697 0 0.5555703
vn -0.8314697 0 0.5555703
vn -0.8314697 0 0.5555703
vn -0.5555702 0 0.8314696
vn -0.5555702 0 0.8314696
vn -0.5555702 0 0.8314696
vn -0.5555702 0 0.8314696
vn -0.1950903 0 0.9807853
vn -0.1950903 0 0.9807853
vn -0.1950903 0 0.9807853
vn -0.1950903 0 0.9807853
vn 0.1950904 0 0.9807854
vn 0.1950904 0 0.9807854
vn 0.1950904 0 0.9807854
vn 0.1950904 0 0.9807854
vn 0.5555702 0 0.8314697
vn 0.5555702 0 0.8314697
vn 0.5555702 0 0.8314697
vn 0.5555702 0 0.8314697
vn 0.8314696 0 0.5555703
vn 0.8314696 0 0.5555703
vn 0.8314696 0 0.5555703
vn 0.8314696 0 0.5555703
vn 0.9807854 0 0.1950903
vn 0.9807854 0 0.1950903
vn 0.9807854 0 0.1950903
vn 0.9807854 0 0.1950903
vn 0.9807854 0 -0.1950904
vn 0.9807854 0 -0.1950904
vn 0.9807854 0 -0.1950904
vn 0.9807854 0 -0.1950904
vn 0.8314697 0 -0.5555703
vn 0.8314697 0 -0.5555703
vn 0.8314697 0 -0.5555703
vn 0.8314697 0 -0.5555703
vn -0.8411328 0 -0.5408288
vn -0.8411328 0 -0.5408288
vn -0.8411328 0 -0.5408288
vn -0.8411328 0 -0.5408288
vn 0.1950903 0 -0.9807854
vn 0.1950903 0 -0.9807854
vn 0.1950903 0 -0.9807854
vn 0.1950903 0 -0.9807854
vn 0.9746647 0 -0.2236709
vn 0.9746647 0 -0.2236709
vn 0.9746647 0 -0.2236709
vn 0.9746647 0 -0.2236709
vn -0.5555703 0 -0.8314696
vn -0.5555703 0 -0.8314696
vn -0.5555703 0 -0.8314696
vn -0.5555703 0 -0.8314696
vn -0.8314695 0 -0.5555703
vn -0.8314695 0 -0.5555703
vn -0.8314695 0 -0.5555703
vn -0.8314695 0 -0.5555703
vn -0.9807852 0 -0.1950903
vn -0.9807852 0 -0.1950903
vn -0.9807852 0 -0.1950903
vn -0.9807852 0 -0.1950903
vn 0 -1 0
vn 0 -1 0
vn 0 -1 0
vn 0 1 0
vn 0 1 0
vn 0 1 0
vn 0 -1 0
vn 0 -1 0
vn 0 -1 0
vn 0 1 0
vn 0 1 0
vn 0 1 0
vn 0 -1 0
vn 0 -1 0
vn 0 -1 0
vn 0 1 0
vn 0 1 0
vn 0 1 0
vn 0 -1 0
vn 0 -1 0
vn 0 -1 0
vn 0 1 0
vn 0 1 0
vn 0 1 0
vn 0 -1 0
vn 0 -1 0
vn 0 -1 0
vn 0 1 0
vn 0 1 0
vn 0 1 0
vn 0 -1 0
vn 0 -1 0
vn 0 -1 0
vn 0 1 0
vn 0 1 0
vn 0 1 0
vn 0 -1 0
vn 0 -1 0
vn 0 -1 0
vn 0 1 0
vn 0 1 0
vn 0 1 0
vn 0 -1 0
vn 0 -1 0
vn 0 -1 0
vn 0 1 0
vn 0 1 0
vn 0 1 0
vn 0 -1 0
vn 0 -1 0
vn 0 -1 0
vn 0 1 0
vn 0 1 0
vn 0 1 0
vn 0 -1 0
vn 0 -1 0
vn 0 -1 0
vn 0 1 0
vn 0 1 0
vn 0 1 0
vn 0 0.9999999 0
vn 0 0.9999999 0
vn 0 0.9999999 0
vn 0 -0.9999999 0
vn 0 -0.9999999 0
vn 0 -0.9999999 0
vn 0 1 0
vn 0 1 0
vn 0 1 0
vn 0 -1 0
vn 0 -1 0
vn 0 -1 0
vn 0 1 0
vn 0 1 0
vn 0 1 0
vn 0 -1 0
vn 0 -1 0
vn 0 -1 0
vn 0 -1 0
vn 0 -1 0
vn 0 -1 0
vn 0 1 0
vn 0 1 0
vn 0 1 0
vn 0 -1 0
vn 0 -1 0
vn 0 -1 0
vn 0 1 0
vn 0 1 0
vn 0 1 0
vn 0 -1 0
vn 0 -1 0
vn 0 -1 0
vn 0 1 0
vn 0 1 0
vn 0 1 0

vt -0.4877259 0
vt -0.4877259 0.15
vt 0.4877259 0
vt 0.4877259 0.15
vt -0.4877258 0
vt -0.4877258 0.15
vt 0.4877258 0
vt 0.4877258 0.15
vt -0.4877259 0
vt -0.4877259 0.15
vt 0.4877258 0
vt 0.4877258 0.15
vt -0.4877258 0
vt -0.4877258 0.15
vt 0.4877259 0
vt 0.4877259 0.15
vt -0.4877259 0
vt -0.4877259 0.15
vt 0.4877256 0
vt 0.4877256 0.15
vt -0.4877257 0
vt -0.4877257 0.15
vt 0.487726 0
vt 0.487726 0.15
vt -0.4877256 0
vt -0.4877256 0.15
vt 0.4877259 0
vt 0.4877259 0.15
vt -0.4877261 0
vt -0.4877261 0.15
vt 0.4877259 0
vt 0.4877259 0.15
vt -0.4877258 0
vt -0.4877258 0.15
vt 0.4877256 0
vt 0.4877256 0.15
vt -0.487726 0
vt -0.487726 0.15
vt 0.4877254 0
vt 0.4877254 0.15
vt -2.442986 0
vt -2.442986 0.15
vt -0.1440701 0
vt -0.1440701 0.15
vt -0.546741 0
vt -0.546741 0.15
vt 0.428711 0
vt 0.428711 0.15
vt 0.1204415 0
vt 0.1204415 0.15
vt 2.46517 0
vt 2.46517 0.15
vt -0.4877253 0
vt -0.4877253 0.15
vt 0.4877253 0
vt 0.4877253 0.15
vt -0.4877258 0
vt -0.4877258 0.15
vt 0.4877262 0
vt 0.4877262 0.15
vt -0.4877257 0
vt -0.4877257 0.15
vt 0.4877259 0
vt 0.4877259 0.15
vt -2.5 0
vt 0 0
vt -2.309699 0.9567087
vt 2.5 0
vt 0 0
vt 2.309699 0.9567087
vt -2.309699 0.9567087
vt 0 0
vt -1.767767 1.767767
vt 2.309699 0.9567087
vt 0 0
vt 1.767767 1.767767
vt -1.767767 1.767767
vt 0 0
vt -0.9567086 2.309699
vt 1.767767 1.767767
vt 0 0
vt 0.9567086 2.309699
vt -0.9567086 2.309699
vt 0 0
vt 1.092785E-07 2.5
vt 0.9567086 2.309699
vt 0 0
vt -1.092785E-07 2.5
vt 1.092785E-07 2.5
vt 0 0
vt 0.9567085 2.309699
vt -1.092785E-07 2.5
vt 0 0
vt -0.9567085 2.309699
vt 0.9567085 2.309699
vt 0 0
vt 1.767767 1.767767
vt -0.9567085 2.309699
vt 0 0
vt -1.767767 1.767767
vt 1.767767 1.767767
vt 0 0
vt 2.309699 0.9567087
vt -1.767767 1.767767
vt 0 0
vt -2.309699 0.9567087
vt 2.309699 0.9567087
vt 0 0
vt 2.5 -2.185569E-07
vt -2.309699 0.9567087
vt 0 0
vt -2.5 -2.185569E-07
vt 2.5 -2.185569E-07
vt 0 0
vt 2.309699 -0.9567086
vt -2.5 -2.185569E-07
vt 0 0
vt -2.309699 -0.9567086
vt 2.309699 -0.9567086
vt 0 0
vt 1.767767 -1.767767
vt -2.309699 -0.9567086
vt 0 0
vt -1.767767 -1.767767
vt -1.767767 -1.767767
vt 0 0
vt -0.5244474 0.1659265
vt 1.767767 -1.767767
vt 0 0
vt 0.5244474 0.1659265
vt -0.5244474 0.1659265
vt 0 0
vt 0.4322615 -0.02437472
vt 0.5244474 0.1659265
vt 0 0
vt -0.4322615 -0.02437472
vt 0.4322615 -0.02437472
vt 0 0
vt 0.956709 -2.309699
vt -0.4322615 -0.02437472
vt 0 0
vt -0.956709 -2.309699
vt -0.956709 -2.309699
vt 0 0
vt -1.767767 -1.767767
vt 0.956709 -2.309699
vt 0 0
vt 1.767767 -1.767767
vt -1.767767 -1.767767
vt 0 0
vt -2.309699 -0.9567086
vt 1.767767 -1.767767
vt 0 0
vt 2.309699 -0.9567086
vt -2.309699 -0.9567086
vt 0 0
vt -2.5 0
vt 2.309699 -0.9567086
vt 0 0
vt 2.5 0

g Cylinder_0
usemtl Default_Prototype
f 3/3/3 4/4/4 2/2/2 1/1/1
f 7/7/7 8/8/8 6/6/6 5/5/5
f 11/11/11 12/12/12 10/10/10 9/9/9
f 15/15/15 16/16/16 14/14/14 13/13/13
f 19/19/19 20/20/20 18/18/18 17/17/17
f 23/23/23 24/24/24 22/22/22 21/21/21
f 27/27/27 28/28/28 26/26/26 25/25/25
f 31/31/31 32/32/32 30/30/30 29/29/29
f 35/35/35 36/36/36 34/34/34 33/33/33
f 39/39/39 40/40/40 38/38/38 37/37/37
f 43/43/43 44/44/44 42/42/42 41/41/41
f 47/47/47 48/48/48 46/46/46 45/45/45
f 51/51/51 52/52/52 50/50/50 49/49/49
f 55/55/55 56/56/56 54/54/54 53/53/53
f 59/59/59 60/60/60 58/58/58 57/57/57
f 63/63/63 64/64/64 62/62/62 61/61/61

g Cylinder_1
usemtl Default_Prototype
f 65/65/65 66/66/66 67/67/67
f 71/71/71 72/72/72 73/73/73
f 77/77/77 78/78/78 79/79/79
f 83/83/83 84/84/84 85/85/85
f 89/89/89 90/90/90 91/91/91
f 95/95/95 96/96/96 97/97/97
f 101/101/101 102/102/102 103/103/103
f 107/107/107 108/108/108 109/109/109
f 113/113/113 114/114/114 115/115/115
f 119/119/119 120/120/120 121/121/121
f 125/125/125 126/126/126 127/127/127
f 131/131/131 132/132/132 133/133/133
f 137/137/137 138/138/138 139/139/139
f 143/143/143 144/144/144 145/145/145
f 149/149/149 150/150/150 151/151/151
f 155/155/155 156/156/156 157/157/157
f 70/70/70 69/69/69 68/68/68
f 76/76/76 75/75/75 74/74/74
f 82/82/82 81/81/81 80/80/80
f 88/88/88 87/87/87 86/86/86
f 94/94/94 93/93/93 92/92/92
f 100/100/100 99/99/99 98/98/98
f 106/106/106 105/105/105 104/104/104
f 112/112/112 111/111/111 110/110/110
f 118/118/118 117/117/117 116/116/116
f 124/124/124 123/123/123 122/122/122
f 130/130/130 129/129/129 128/128/128
f 136/136/136 135/135/135 134/134/134
f 142/142/142 141/141/141 140/140/140
f 148/148/148 147/147/147 146/146/146
f 154/154/154 153/153/153 152/152/152
f 160/160/160 159/159/159 158/158/158

