# Exported from ProBuilder
# http://www.procore3d.com/probuilder
# 10/9/2018 3:12:00 PM

mtllib ./Cylinder_Error.mtl
o Cylinder Error

g Cylinder Error
v -3.100469E-08 0 -2.6
v -3.100469E-08 0.35 -2.6
v -0.9949774 0 -2.402086
v -0.9949774 0.35 -2.402086
v -3.100469E-08 0 -2.6
v 0 0 0
v -0.9949774 0 -2.402086
v -3.100469E-08 0.35 -2.6
v 0 0.35 0
v -0.9949774 0.35 -2.402086

vn -0.1950904 0 -0.9807853
vn -0.1950904 0 -0.9807853
vn -0.1950904 0 -0.9807853
vn -0.1950904 0 -0.9807853
vn 0 -1 0
vn 0 -1 0
vn 0 -1 0
vn 0 1 0
vn 0 1 0
vn 0 1 0

vt -0.5072351 0
vt -0.5072351 0.35
vt 0.507235 0
vt 0.507235 0.35
vt -3.100469E-08 -2.6
vt 0 0
vt -0.9949774 -2.402086
vt 3.100469E-08 -2.6
vt 0 0
vt 0.9949774 -2.402086

g Cylinder Error_0
usemtl Default_Prototype
f 3/3/3 4/4/4 2/2/2 1/1/1

g Cylinder Error_1
usemtl Default_Prototype
f 5/5/5 6/6/6 7/7/7
f 10/10/10 9/9/9 8/8/8

